ply
format ascii 1.0
element vertex 54
property float x
property float y
property float z
property uchar red
property uchar green
property uchar blue
end_header
289.719 186.102 174.423 255 255 255
9.05071 307.687 7.47035 255 255 255
-26.7587 356.091 -2.12667 255 255 255
432.381 104.28 244.202 255 255 255
53.5036 -36.8359 29.6825  0 255 0
55.8334 -33.861 23.8675  0 255 0
65.1261 -27.8169 2.35976  0 255 0
68.4124 -22.2903 -9.48547  0 255 0
68.5655 -20.3333 -14.4285  0 255 0
68.7188 -14.1609 -26.4194  0 255 0
66.7455 -9.03551 -36.3624  0 255 0
64.4406 -3.92084 -44.5366  0 255 0
61.0915 1.81771 -52.749  0 255 0
57.2569 7.70016 -59.8752  0 255 0
51.8394 15.9825 -68.3012  0 255 0
45.4791 24.4672 -75.0298  0 255 0
41.001 33.5337 -77.4872  0 255 0
29.9199 39.463 -85.4885  0 255 0
23.121 48.9733 -86.4812  0 255 0
14.8827 58.9551 -86.9869  0 255 0
13.5511 36.9482 -103.997  0 255 0
-2.17765 76.876 -82.9114  0 255 0
-9.48955 89.0536 -72.985  0 255 0
-17.1073 92.2194 -71.1041  0 255 0
-25.0293 98.1634 -64.4888  0 255 0
-20.1767 104.135 -51.1055  0 255 0
-38.7276 106.069 -47.9679  0 255 0
-49.384 109.032 -34.3328  0 255 0
-64.8711 107.132 -31.5255  0 255 0
-58.1028 109.197 -10.968  0 255 0
-63.3591 105.863 4.23702  0 255 0
-65.0267 101.616 17.6512  0 255 0
-67.1346 96.2437 28.4345  0 255 0
-67.4797 91.0708 37.2836  0 255 0
-67.1674 84.2819 46.5963  0 255 0
-64.486 75.9451 56.9621  0 255 0
-62.2815 69.8475 63.0397  0 255 0
-56.645 59.199 72.4653  0 255 0
-54.8073 49.7429 77.2616  0 255 0
-41.5615 41.818 84.4612  0 255 0
-35.0193 40.29 87.3289  0 255 0
-24.9395 28.8217 90.7162  0 255 0
-19.6071 25.6107 95.4511  0 255 0
-4.48833 16.9042 93.6929  0 255 0
3.85801 13.0852 93.6764  0 255 0
15.6654 7.32645 92.1183  0 255 0
27.5084 3.03657 89.7213  0 255 0
36.6754 -0.447426 86.4525  0 255 0
46.1449 -2.33641 83.022  0 255 0
66.1888 3.77447 81.7321  0 255 0
89.9281 20.3829 88.3947  0 255 0
98.1097 15.1925 75.7439  0 255 0
103.352 15.5521 69.6018  0 255 0
111.312 16.1486 57.3883  0 255 0
