ply
format ascii 1.0
element vertex 104
property float x
property float y
property float z
property uchar red
property uchar green
property uchar blue
end_header
0 0 0 255 255 0
1 0 0 255 255 0
1.11058 -0.0342631 -0.0689198 255 255 0
-0.501025 -0.409016 -1.172 255 255 0
0.596407 2.43733 -0.324957 255 0 0
0.585718 2.43188 -0.341159 255 0 0
0.588261 2.4391 -0.366996 255 0 0
0.591824 2.43167 -0.39796 255 0 0
0.597801 2.45727 -0.415414 255 0 0
0.598941 2.45159 -0.418676 255 0 0
0.58524 2.37542 -0.448254 255 0 0
0.588677 2.48908 -0.487374 255 0 0
0.611237 2.37568 -0.450316 255 0 0
0.570498 2.47803 -0.525101 255 0 0
0.553459 2.49234 -0.550421 255 0 0
0.530173 2.50241 -0.58009 255 0 0
0.474166 2.40373 -0.59131 255 0 0
0.518302 2.52641 -0.62429 255 0 0
0.49468 2.54763 -0.636894 255 0 0
0.477878 2.54325 -0.663142 255 0 0
0.460305 2.55593 -0.677436 255 0 0
0.44947 2.57047 -0.691702 255 0 0
0.411195 2.54275 -0.712043 255 0 0
0.402742 2.57318 -0.727876 255 0 0
0.376595 2.58522 -0.74313 255 0 0
0.340843 2.59508 -0.746907 255 0 0
0.31525 2.60191 -0.754547 255 0 0
0.282136 2.45352 -0.694854 255 0 0
0.246527 2.62586 -0.76444 255 0 0
0.226028 2.62807 -0.782609 255 0 0
0.203697 2.63972 -0.780578 255 0 0
0.168202 2.69702 -0.794721 255 0 0
0.126301 2.65028 -0.783113 255 0 0
0.0992126 2.64802 -0.773429 255 0 0
0.0647596 2.66914 -0.778433 255 0 0
0.0228455 2.69582 -0.790501 255 0 0
0.0109774 2.68371 -0.747589 255 0 0
-0.0290416 2.69496 -0.741051 255 0 0
-0.00969097 2.33113 -0.729008 255 0 0
-0.075204 2.69683 -0.712435 255 0 0
0.00215227 2.70682 -0.667562 255 0 0
-0.133765 2.71592 -0.672181 255 0 0
-0.156093 2.62915 -0.623594 255 0 0
-0.0460121 2.35686 -0.574718 255 0 0
-0.214307 2.74759 -0.608992 255 0 0
-0.220946 2.87363 -0.620877 255 0 0
-0.233682 2.77016 -0.551296 255 0 0
-0.258678 2.78781 -0.504109 255 0 0
-0.278051 2.6419 -0.523397 255 0 0
-0.242356 2.79621 -0.416876 255 0 0
-0.280116 2.83583 -0.404441 255 0 0
-0.308918 2.84956 -0.375822 255 0 0
-0.307634 2.85769 -0.34219 255 0 0
-0.317031 2.86343 -0.308161 255 0 0
-0.308379 2.86846 -0.27083 255 0 0
-0.312745 2.88086 -0.236546 255 0 0
-0.312063 2.90807 -0.203831 255 0 0
-0.300983 2.92628 -0.165775 255 0 0
-0.290282 2.66652 -0.136321 255 0 0
-0.257781 2.76915 -0.053338 255 0 0
-0.399992 3.36445 0.00208441 255 0 0
-0.270252 2.80683 -0.0289394 255 0 0
-0.230544 2.95645 0.0152734 255 0 0
-0.212907 2.95458 0.0462755 255 0 0
-0.184806 2.9821 0.0787072 255 0 0
-0.171086 2.95789 0.0425285 255 0 0
-0.127483 2.98971 0.11727 255 0 0
-0.144093 2.66345 0.0626218 255 0 0
-0.0731308 2.98876 0.180592 255 0 0
-0.0437723 2.685 0.185237 255 0 0
-0.006833 3.00769 0.217362 255 0 0
-0.00861428 3.01974 0.218156 255 0 0
0.057277 3.01428 0.2349 255 0 0
0.100309 3.01884 0.244742 255 0 0
0.123223 3.03205 0.248185 255 0 0
0.160273 3.01163 0.25963 255 0 0
0.222393 3.12895 0.253932 255 0 0
0.229451 3.02921 0.28168 255 0 0
0.28796 3.02407 0.264772 255 0 0
0.312727 3.05186 0.267236 255 0 0
0.344092 3.03696 0.244037 255 0 0
0.370834 3.06158 0.246481 255 0 0
0.410167 3.04394 0.243978 255 0 0
0.446784 3.05017 0.235626 255 0 0
0.470399 3.03471 0.216182 255 0 0
0.505633 3.06991 0.186646 255 0 0
0.540236 3.0625 0.177046 255 0 0
0.55951 3.07732 0.142576 255 0 0
0.583614 3.09179 0.132555 255 0 0
0.608256 3.08601 0.110287 255 0 0
0.637355 3.09204 0.079983 255 0 0
0.65147 3.04473 0.0667503 255 0 0
0.665715 3.10534 0.0313062 255 0 0
0.692483 3.12173 0.00677404 255 0 0
0.709629 3.13685 -0.0226751 255 0 0
0.728568 3.14946 -0.0513655 255 0 0
0.635064 2.84999 -0.0972098 255 0 0
0.878448 3.54728 -0.0943724 255 0 0
0.75109 3.1727 -0.141245 255 0 0
0.745789 3.20006 -0.170621 255 0 0
0.735597 2.55645 -0.252485 255 0 0
0.73668 3.22838 -0.232488 255 0 0
0.737212 3.22179 -0.31919 255 0 0
0.753373 3.25008 -0.299988 255 0 0
