ply
format ascii 1.0
element vertex 54
property float x
property float y
property float z
property uchar red
property uchar green
property uchar blue
end_header
0 0 0 255 255 0
1 0 0 255 255 0
0.868048 0.245134 -0.467712 255 255 0
-0.222307 -0.358751 -1.28085 255 255 0
0.565284 1.83376 -0.468649 255 0 0
0.579777 1.74635 -0.494649 255 0 0
0.555297 1.87189 -0.535449 255 0 0
0.558596 1.89117 -0.575049 255 0 0
0.546157 1.90642 -0.612205 255 0 0
0.458751 2.05832 -0.681774 255 0 0
0.494486 2.36957 -0.671872 255 0 0
0.478183 1.97815 -0.710159 255 0 0
0.448775 1.98482 -0.732707 255 0 0
0.473161 2.08233 -0.807573 255 0 0
0.371435 2.03184 -0.776689 255 0 0
0.337439 1.98609 -0.771061 255 0 0
0.279523 2.05831 -0.799729 255 0 0
0.223388 2.10539 -0.808877 255 0 0
0.180919 2.10746 -0.804619 255 0 0
0.141005 2.12008 -0.794519 255 0 0
0.0845762 2.13564 -0.770027 255 0 0
0.0447913 2.16096 -0.757585 255 0 0
0.00200694 2.17669 -0.716457 255 0 0
-0.0428654 2.19009 -0.686384 255 0 0
-0.0517973 1.94328 -0.593469 255 0 0
-0.092064 2.24318 -0.596835 255 0 0
-0.11667 2.258 -0.549602 255 0 0
-0.0736319 2.09551 -0.45458 255 0 0
-0.130211 2.29242 -0.434565 255 0 0
-0.130825 2.29477 -0.387473 255 0 0
-0.122275 2.31476 -0.325238 255 0 0
-0.0913018 2.31526 -0.265084 255 0 0
-0.0753769 2.31926 -0.223714 255 0 0
-0.044339 2.32591 -0.164379 255 0 0
-0.0129547 2.44751 -0.140251 255 0 0
0.0346705 2.32074 -0.0965353 255 0 0
0.126151 2.32391 -0.0207238 255 0 0
0.140698 2.30361 -0.0378808 255 0 0
0.187194 2.29183 -0.03134 255 0 0
0.258481 2.27491 -0.0238901 255 0 0
0.306732 2.27011 -0.0195076 255 0 0
0.351096 2.19858 -0.0304932 255 0 0
0.47494 1.34336 -0.209897 255 0 0
0.492556 1.54033 -0.219541 255 0 0
0.501075 2.26725 -0.0863741 255 0 0
0.536131 2.27283 -0.110613 255 0 0
0.532341 2.11144 -0.212458 255 0 0
0.599689 2.28809 -0.180764 255 0 0
0.634866 2.30609 -0.219855 255 0 0
0.644482 2.06692 -0.296497 255 0 0
0.665346 2.43061 -0.292954 255 0 0
0.679058 2.37509 -0.360789 255 0 0
0.678618 2.39316 -0.39038 255 0 0
0.664285 2.43489 -0.449395 255 0 0
