ply
format ascii 1.0
element vertex 54
property float x
property float y
property float z
property uchar red
property uchar green
property uchar blue
end_header
0 0 0 255 255 0
1 0 0 255 255 0
0.742936 -0.245414 0.58846 255 255 0
-0.955813 -0.216626 0.391537 255 255 0
0.407053 2.48563 0.158072 255 0 0
0.397658 2.78343 0.141994 255 0 0
0.39586 2.79585 0.0829759 255 0 0
0.37055 2.61368 0.109915 255 0 0
0.393605 2.90127 -0.0872593 255 0 0
0.344349 2.8261 -0.059004 255 0 0
0.303065 2.70733 -0.106874 255 0 0
0.29741 2.83037 -0.177469 255 0 0
0.20175 2.80691 -0.187012 255 0 0
0.169697 2.85585 -0.241404 255 0 0
0.0729144 2.8375 -0.221887 255 0 0
0.0528075 2.90656 -0.262022 255 0 0
-0.0240083 2.91799 -0.288742 255 0 0
-0.0834908 2.91863 -0.295087 255 0 0
-0.121521 3.1554 -0.30532 255 0 0
-0.21027 2.96023 -0.26677 255 0 0
-0.306109 2.9225 -0.228091 255 0 0
-0.355975 3.03108 -0.206437 255 0 0
-0.3982 3.05229 -0.170887 255 0 0
-0.451499 3.06861 -0.109628 255 0 0
-0.513224 3.28633 -0.081312 255 0 0
-0.553912 3.12017 0.0171958 255 0 0
-0.60515 3.00797 0.0581208 255 0 0
-0.596301 3.18202 0.167235 255 0 0
-0.626536 3.21288 0.244799 255 0 0
-0.616319 3.24225 0.317003 255 0 0
-0.623091 3.25289 0.397398 255 0 0
-0.588738 3.28948 0.479419 255 0 0
-0.551681 3.293 0.566227 255 0 0
-0.50333 3.28821 0.73613 255 0 0
-0.473914 3.34773 0.677377 255 0 0
-0.409684 3.37341 0.747506 255 0 0
-0.334074 3.39522 0.80564 255 0 0
-0.26163 3.42629 0.832933 255 0 0
-0.185218 3.44793 0.860265 255 0 0
-0.104854 3.49247 0.882909 255 0 0
-0.0279105 3.49073 0.878255 255 0 0
0.0406535 3.51498 0.900398 255 0 0
0.159168 3.5543 0.884876 255 0 0
0.215112 3.55767 0.841793 255 0 0
0.284002 3.58129 0.819258 255 0 0
0.308595 3.48597 0.798634 255 0 0
0.414573 3.61398 0.710403 255 0 0
0.472193 3.53739 0.635604 255 0 0
0.494973 3.66367 0.629898 255 0 0
0.541359 3.68193 0.52989 255 0 0
0.61025 3.91632 0.469416 255 0 0
0.565355 3.73549 0.375606 255 0 0
0.566123 3.98833 0.334299 255 0 0
0.560835 3.75614 0.246021 255 0 0
