ply
format ascii 1.0
element vertex 64
property float x
property float y
property float z
property uchar red
property uchar green
property uchar blue
end_header
0 0 0 255 255 0
1 0 0 255 255 0
1.43422 -0.699105 0.0758751 255 255 0
-2.39755 0.535408 -0.243478 255 255 0
0.318937 5.79566 0.00203536 255 0 0
0.30384 6.07633 -0.206375 255 0 0
0.400726 5.84597 -0.135494 255 0 0
0.316766 6.11265 -0.3528 255 0 0
0.159896 6.19359 -0.366275 255 0 0
0.262072 6.134 -0.563484 255 0 0
0.291879 5.45369 -0.507014 255 0 0
0.0701508 6.18511 -0.512056 255 0 0
0.11201 6.16112 -0.804593 255 0 0
0.0122427 6.16157 -0.899696 255 0 0
-0.0628078 6.15493 -0.95967 255 0 0
-0.148182 6.19028 -1.00911 255 0 0
-0.227511 6.19743 -1.0454 255 0 0
-0.35593 6.16514 -1.02804 255 0 0
-0.441822 6.1967 -1.08663 255 0 0
-0.570125 6.20189 -1.10144 255 0 0
-0.513394 6.11464 -0.97948 255 0 0
-0.751443 5.98038 -0.98298 255 0 0
-0.913012 6.22888 -1.05929 255 0 0
-0.990858 6.20206 -1.01182 255 0 0
-1.12598 6.21573 -0.945105 255 0 0
-1.21028 6.28985 -0.912087 255 0 0
-1.31663 6.23924 -0.79911 255 0 0
-1.41723 6.23416 -0.709173 255 0 0
-1.40466 6.36906 -0.533719 255 0 0
-1.55796 6.2695 -0.534196 255 0 0
-1.59338 6.29956 -0.393649 255 0 0
-1.46252 6.42575 -0.459112 255 0 0
-1.66836 6.3595 -0.173994 255 0 0
-1.67697 6.38211 -0.0271219 255 0 0
-1.49429 6.42853 0.272269 255 0 0
-1.68207 7.23187 0.286885 255 0 0
-1.66271 6.49111 0.365401 255 0 0
-1.59662 6.57636 0.482455 255 0 0
-1.52957 6.3284 0.566971 255 0 0
-1.51539 6.6571 0.735997 255 0 0
-1.39901 6.7235 0.845282 255 0 0
-1.29196 6.7972 0.983697 255 0 0
-1.1286 7.19972 1.0772 255 0 0
-1.09585 6.92237 1.09285 255 0 0
-1.03575 6.1965 1.01123 255 0 0
-0.845457 7.07246 1.22496 255 0 0
-0.712133 7.10684 1.24742 255 0 0
-0.608479 7.17716 1.29663 255 0 0
-0.46175 7.23892 1.29906 255 0 0
-0.322381 7.3031 1.27457 255 0 0
-0.204589 7.39801 1.22623 255 0 0
-0.0533895 7.46615 1.23596 255 0 0
0.0845466 6.94938 1.30242 255 0 0
0.162589 7.57476 1.08648 255 0 0
0.295387 7.66037 1.04071 255 0 0
0.397837 7.70624 0.936957 255 0 0
0.470228 7.75674 0.827475 255 0 0
0.554304 7.85519 0.766839 255 0 0
0.616239 7.90063 0.630226 255 0 0
0.656153 7.95128 0.482894 255 0 0
0.674274 8.02259 0.353191 255 0 0
0.749978 6.82907 -0.00229458 255 0 0
0.793596 8.39187 0.0418676 255 0 0
0.693545 8.09931 -0.0204705 255 0 0
