ply
format ascii 1.0
element vertex 54
property float x
property float y
property float z
property uchar red
property uchar green
property uchar blue
end_header
0 0 0 255 255 0
1 0 0 255 255 0
0.662278 0.0482382 0.747125 255 255 0
-0.611529 -0.234422 0.518074 255 255 0
0.448444 1.9916 0.235773 255 0 0
0.433886 2.14757 0.240852 255 0 0
0.440577 2.14632 0.207622 255 0 0
0.433958 2.15889 0.168648 255 0 0
0.421752 2.17216 0.132206 255 0 0
0.416412 2.02822 0.124279 255 0 0
0.385237 2.1223 0.0855134 255 0 0
0.349731 2.206 0.00757376 255 0 0
0.310254 2.20752 -0.00295161 255 0 0
0.25981 2.23764 -0.0426647 255 0 0
0.246356 2.14394 -0.0773701 255 0 0
0.174795 2.28283 -0.0742286 255 0 0
0.120442 2.28615 -0.0813954 255 0 0
0.135743 2.06269 -0.0948488 255 0 0
0.0797263 2.31554 -0.0631648 255 0 0
-0.0305778 2.34358 -0.0714433 255 0 0
-0.0625957 2.45656 -0.00358622 255 0 0
-0.144253 2.39198 -0.0331393 255 0 0
-0.171237 2.47771 0.0179717 255 0 0
-0.227477 2.44945 0.0489464 255 0 0
-0.347198 2.65605 0.0256027 255 0 0
-0.310461 2.48129 0.138451 255 0 0
-0.322449 2.50453 0.197793 255 0 0
-0.342465 2.53406 0.260629 255 0 0
-0.378525 2.61555 0.307749 255 0 0
-0.359341 2.61478 0.395292 255 0 0
-0.34956 2.57584 0.445725 255 0 0
-0.329543 2.60224 0.50009 255 0 0
-0.307754 2.61945 0.565956 255 0 0
-0.262358 2.61507 0.614457 255 0 0
-0.233358 2.63793 0.66839 255 0 0
-0.174476 2.64399 0.710075 255 0 0
-0.130038 2.45307 0.680875 255 0 0
-0.0781395 2.6836 0.780033 255 0 0
-0.00526822 2.67249 0.799424 255 0 0
0.0708843 2.76172 0.866742 255 0 0
0.116636 2.7031 0.819835 255 0 0
0.173676 2.71798 0.805673 255 0 0
0.235296 2.71127 0.795106 255 0 0
0.301305 2.71925 0.77982 255 0 0
0.34779 2.72021 0.749142 255 0 0
0.403544 2.72184 0.717586 255 0 0
0.4382 2.73971 0.676076 255 0 0
0.545871 2.68673 0.643115 255 0 0
0.528375 2.88497 0.549735 255 0 0
0.512035 2.80291 0.565385 255 0 0
0.548623 2.79166 0.480669 255 0 0
0.54571 2.7702 0.404019 255 0 0
0.511078 2.44932 0.405134 255 0 0
0.566166 2.4588 0.26729 255 0 0
