ply
format ascii 1.0
element vertex 14
property float x
property float y
property float z
property uchar red
property uchar green
property uchar blue
end_header
0 0 0 0 255 0
1 0 0 0 255 0
1.3 0 0 0 255 0
-1.3 0 0 0 255 0
0.481836 4.05511 -0.357675 255 255 255
0.2244 4.13744 -0.66356 255 255 255
-0.232967 4.26732 -0.723351 255 255 255
-0.662083 4.35668 -0.46653 255 255 255
-0.864776 4.5053 -0.00952068 255 255 255
-0.711419 4.65046 0.511521 255 255 255
-0.275176 4.79845 0.84922 255 255 255
0.266299 4.96419 0.816966 255 255 255
0.662507 5.14029 0.501135 255 255 255
0.738395 5.32281 0.0152608 255 255 255
