ply
format ascii 1.0
element vertex 54
property float x
property float y
property float z
property uchar red
property uchar green
property uchar blue
end_header
0 0 0 0 255 0
1 0 0 0 255 0
1.57258 0.334554 0.116866 0 255 0
-0.672454 0.331113 0.309792 0 255 0
0.50629 4.00934 0.000215961 255 255 255
0.516427 4.01766 -0.0607271 255 255 255
0.53179 4.03103 -0.124607 255 255 255
0.520199 4.0439 -0.196021 255 255 255
0.507343 4.05179 -0.270623 255 255 255
0.490539 4.07228 -0.3474 255 255 255
0.452515 4.08183 -0.41539 255 255 255
0.41254 4.09822 -0.483413 255 255 255
0.357809 4.11297 -0.545677 255 255 255
0.293931 4.12909 -0.603226 255 255 255
0.220559 4.1535 -0.650689 255 255 255
0.14054 4.17301 -0.681291 255 255 255
0.0486273 4.19184 -0.709646 255 255 255
-0.0427732 4.21274 -0.726131 255 255 255
-0.137008 4.23468 -0.725803 255 255 255
-0.234389 4.25423 -0.716368 255 255 255
-0.325654 4.27081 -0.69933 255 255 255
-0.412118 4.29291 -0.658665 255 255 255
-0.505516 4.32581 -0.607116 255 255 255
-0.583419 4.34976 -0.554669 255 255 255
-0.656059 4.37379 -0.474649 255 255 255
-0.719864 4.39863 -0.393808 255 255 255
-0.775964 4.41849 -0.304912 255 255 255
-0.821457 4.44849 -0.208171 255 255 255
-0.845011 4.47876 -0.104997 255 255 255
-0.861347 4.50736 0.0096577 255 255 255
-0.863675 4.52981 0.110147 255 255 255
-0.847239 4.55843 0.219278 255 255 255
-0.811533 4.59194 0.325139 255 255 255
-0.768789 4.61967 0.436112 255 255 255
-0.71094 4.64897 0.529678 255 255 255
-0.642681 4.67916 0.614204 255 255 255
-0.564616 4.717 0.692431 255 255 255
-0.469017 4.74088 0.762429 255 255 255
-0.377024 4.7795 0.812651 255 255 255
-0.269631 4.8061 0.8499 255 255 255
-0.161046 4.8402 0.876789 255 255 255
-0.0492316 4.87592 0.888573 255 255 255
0.0626547 4.90793 0.889559 255 255 255
0.171611 4.93913 0.86372 255 255 255
0.2751 4.97116 0.832719 255 255 255
0.370134 5.00195 0.787864 255 255 255
0.464078 5.04007 0.727512 255 255 255
0.538921 5.0733 0.658693 255 255 255
0.616435 5.1 0.577405 255 255 255
0.668372 5.13935 0.493083 255 255 255
0.714576 5.16836 0.394872 255 255 255
0.74853 5.20813 0.296137 255 255 255
0.75971 5.23874 0.195033 255 255 255
0.762338 5.26939 0.102624 255 255 255
