ply
format ascii 1.0
element vertex 54
property float x
property float y
property float z
property uchar red
property uchar green
property uchar blue
end_header
0 0 0 0 255 0
1 0 0 0 255 0
1.3 0 0 0 255 0
-1.3 0 0 0 255 0
0.505395 3.98703 -0.06466 255 255 255
0.521401 4.01278 -0.141926 255 255 255
0.539152 4.02521 -0.196494 255 255 255
0.503927 4.04751 -0.268063 255 255 255
0.476863 4.08005 -0.341033 255 255 255
0.454628 4.07854 -0.421517 255 255 255
0.409393 4.08092 -0.494226 255 255 255
0.340755 4.09941 -0.576981 255 255 255
0.292865 4.14849 -0.60904 255 255 255
0.215798 4.15171 -0.66856 255 255 255
0.143893 4.16406 -0.681956 255 255 255
0.0325074 4.18859 -0.721358 255 255 255
-0.034307 4.20661 -0.729449 255 255 255
-0.112591 4.23236 -0.740445 255 255 255
-0.259502 4.25362 -0.722767 255 255 255
-0.320545 4.26277 -0.691971 255 255 255
-0.420736 4.29835 -0.653526 255 255 255
-0.515481 4.30884 -0.618454 255 255 255
-0.609299 4.33677 -0.561899 255 255 255
-0.643134 4.35252 -0.471921 255 255 255
-0.747099 4.38734 -0.423338 255 255 255
-0.771574 4.40309 -0.315981 255 255 255
-0.807093 4.45897 -0.222006 255 255 255
-0.853091 4.46138 -0.10794 255 255 255
-0.874503 4.51528 0.00610331 255 255 255
-0.850321 4.54398 0.113447 255 255 255
-0.861459 4.56606 0.218951 255 255 255
-0.833379 4.57595 0.324185 255 255 255
-0.767075 4.61543 0.429064 255 255 255
-0.727378 4.63884 0.521789 255 255 255
-0.647218 4.6864 0.600192 255 255 255
-0.583092 4.72487 0.670502 255 255 255
-0.498678 4.73966 0.748151 255 255 255
-0.370891 4.77418 0.805924 255 255 255
-0.274569 4.80529 0.835494 255 255 255
-0.159386 4.83364 0.870025 255 255 255
-0.0671002 4.87408 0.901604 255 255 255
0.0549919 4.88076 0.899892 255 255 255
0.172535 4.92655 0.866809 255 255 255
0.256876 4.97248 0.821072 255 255 255
0.348239 4.98704 0.791331 255 255 255
0.437122 5.03529 0.732665 255 255 255
0.532796 5.06814 0.65622 255 255 255
0.604604 5.09261 0.566119 255 255 255
0.653639 5.14473 0.483541 255 255 255
0.692207 5.16074 0.38062 255 255 255
0.749068 5.20025 0.286954 255 255 255
0.754721 5.21399 0.193768 255 255 255
0.753208 5.28784 0.0883168 255 255 255
0.741659 5.30947 -0.000883181 255 255 255
