ply
format ascii 1.0
element vertex 54
property float x
property float y
property float z
property uchar red
property uchar green
property uchar blue
end_header
0 0 0 0 255 0
1 0 0 0 255 0
1.3 0 0 0 255 0
-1.3 0 0 0 255 0
0.508554 4.00011 0.00249352 255 255 255
0.519748 4.01726 -0.0609234 255 255 255
0.524938 4.03195 -0.126775 255 255 255
0.527926 4.04489 -0.19736 255 255 255
0.513555 4.05751 -0.272109 255 255 255
0.486445 4.06404 -0.347183 255 255 255
0.457277 4.08401 -0.41484 255 255 255
0.404956 4.0988 -0.482803 255 255 255
0.354848 4.11085 -0.541589 255 255 255
0.285885 4.13324 -0.601298 255 255 255
0.217415 4.14991 -0.647993 255 255 255
0.139674 4.17275 -0.678995 255 255 255
0.0475648 4.18473 -0.706437 255 255 255
-0.0360035 4.21335 -0.721931 255 255 255
-0.131577 4.2315 -0.725883 255 255 255
-0.230443 4.25696 -0.71468 255 255 255
-0.321492 4.2783 -0.695455 255 255 255
-0.417407 4.29281 -0.664217 255 255 255
-0.500195 4.32275 -0.614789 255 255 255
-0.584011 4.34866 -0.548193 255 255 255
-0.664723 4.36954 -0.48176 255 255 255
-0.725831 4.39352 -0.391185 255 255 255
-0.779635 4.42232 -0.309408 255 255 255
-0.82192 4.44908 -0.202059 255 255 255
-0.851273 4.47478 -0.102064 255 255 255
-0.857689 4.50733 0.00531645 255 255 255
-0.858329 4.53395 0.113293 255 255 255
-0.848018 4.55728 0.222326 255 255 255
-0.817864 4.59611 0.325131 255 255 255
-0.772792 4.62324 0.435 255 255 255
-0.718467 4.65388 0.52432 255 255 255
-0.647319 4.67811 0.613734 255 255 255
-0.566631 4.71227 0.695786 255 255 255
-0.475528 4.74568 0.756378 255 255 255
-0.377422 4.77804 0.812625 255 255 255
-0.267097 4.8083 0.849845 255 255 255
-0.162853 4.83775 0.880868 255 255 255
-0.0478921 4.87269 0.891496 255 255 255
0.0570431 4.90837 0.886648 255 255 255
0.165991 4.93557 0.864383 255 255 255
0.278369 4.97007 0.828293 255 255 255
0.368045 5.00622 0.782382 255 255 255
0.461519 5.04232 0.727301 255 255 255
0.539716 5.06905 0.653292 255 255 255
0.611179 5.10535 0.580551 255 255 255
0.67309 5.13723 0.488434 255 255 255
0.719239 5.17444 0.397772 255 255 255
0.747271 5.20555 0.295808 255 255 255
0.761375 5.24055 0.195143 255 255 255
0.761091 5.27557 0.0991704 255 255 255
