ply
format ascii 1.0
element vertex 104
property float x
property float y
property float z
property uchar red
property uchar green
property uchar blue
end_header
0 0 0 0 0 0
1 0 0 0 0 0
1.3 0 0 0 0 0
-1.3 0 0 0 0 0
0.515896 4.02711 -0.0389084 0 0 255
0.49927 4.00393 -0.0642778 0 0 255
0.500936 4.0131 -0.104514 0 0 255
0.510872 4.00114 -0.15282 0 0 255
0.521427 4.02235 -0.181244 0 0 255
0.524649 4.02614 -0.183354 0 0 255
0.542347 4.05387 -0.258809 0 0 255
0.508998 4.06115 -0.290412 0 0 255
0.51814 4.05887 -0.303306 0 0 255
0.482233 4.04769 -0.349107 0 0 255
0.458809 4.05937 -0.388289 0 0 255
0.421436 4.0728 -0.432509 0 0 255
0.408767 4.09356 -0.457974 0 0 255
0.405104 4.09422 -0.499299 0 0 255
0.369349 4.11545 -0.518078 0 0 255
0.343768 4.10622 -0.55719 0 0 255
0.31667 4.12082 -0.581112 0 0 255
0.300095 4.1396 -0.598459 0 0 255
0.261831 4.13113 -0.637498 0 0 255
0.233311 4.13582 -0.655244 0 0 255
0.19083 4.14734 -0.678137 0 0 255
0.136798 4.17134 -0.683813 0 0 255
0.0966756 4.18198 -0.69655 0 0 255
0.0499667 4.18889 -0.724102 0 0 255
-0.00897216 4.20219 -0.709105 0 0 255
-0.0379616 4.20501 -0.735165 0 0 255
-0.0740136 4.21446 -0.730796 0 0 255
-0.129826 4.20777 -0.716472 0 0 255
-0.193483 4.24877 -0.735523 0 0 255
-0.235991 4.25466 -0.724636 0 0 255
-0.285029 4.26844 -0.727901 0 0 255
-0.326431 4.26265 -0.69684 0 0 255
-0.368543 4.28989 -0.678581 0 0 255
-0.432053 4.30311 -0.671343 0 0 255
-0.483927 4.3117 -0.651884 0 0 255
-0.503375 4.31209 -0.626444 0 0 255
-0.556186 4.31136 -0.589303 0 0 255
-0.594954 4.32899 -0.563472 0 0 255
-0.626495 4.35639 -0.511184 0 0 255
-0.666814 4.38532 -0.484267 0 0 255
-0.717919 4.36466 -0.462581 0 0 255
-0.731457 4.39535 -0.379495 0 0 255
-0.748398 4.39308 -0.370859 0 0 255
-0.785042 4.41198 -0.302612 0 0 255
-0.816014 4.43189 -0.271588 0 0 255
-0.804053 4.45172 -0.210608 0 0 255
-0.818232 4.4611 -0.149843 0 0 255
-0.861642 4.48372 -0.104223 0 0 255
-0.859343 4.48302 -0.0569824 0 0 255
-0.876075 4.49652 -0.00183775 0 0 255
-0.862255 4.5063 0.0523066 0 0 255
-0.868535 4.51741 0.106583 0 0 255
-0.866634 4.54742 0.154585 0 0 255
-0.849022 4.57172 0.210477 0 0 255
-0.849112 4.56622 0.269797 0 0 255
-0.824503 4.60591 0.332134 0 0 255
-0.802238 4.60371 0.375897 0 0 255
-0.784126 4.60699 0.418387 0 0 255
-0.753473 4.62248 0.48246 0 0 255
-0.725805 4.63218 0.530276 0 0 255
-0.68612 4.66838 0.576228 0 0 255
-0.639942 4.66335 0.619783 0 0 255
-0.602764 4.69264 0.639399 0 0 255
-0.578514 4.70916 0.684387 0 0 255
-0.522842 4.70868 0.734668 0 0 255
-0.48724 4.73389 0.75225 0 0 255
-0.424997 4.74972 0.7919 0 0 255
-0.387791 4.77108 0.826512 0 0 255
-0.330175 4.79377 0.827696 0 0 255
-0.265503 4.81109 0.841742 0 0 255
-0.227627 4.82652 0.847809 0 0 255
-0.174168 4.82264 0.869428 0 0 255
-0.107081 4.8602 0.874974 0 0 255
-0.0725732 4.8666 0.903872 0 0 255
0.0186964 4.88036 0.881711 0 0 255
0.0601348 4.92507 0.887637 0 0 255
0.107823 4.92691 0.855356 0 0 255
0.151168 4.94367 0.858537 0 0 255
0.211998 4.94988 0.852639 0 0 255
0.272491 4.9667 0.841925 0 0 255
0.306336 4.95381 0.814339 0 0 255
0.364201 5.0022 0.767204 0 0 255
0.420511 5.02211 0.754479 0 0 255
0.450413 5.05504 0.702657 0 0 255
0.490621 5.07329 0.686215 0 0 255
0.528675 5.06543 0.64991 0 0 255
0.58025 5.08806 0.603081 0 0 255
0.616208 5.08125 0.577001 0 0 255
0.627224 5.11502 0.525436 0 0 255
0.667291 5.12105 0.485482 0 0 255
0.697759 5.14076 0.437289 0 0 255
0.727867 5.16338 0.393584 0 0 255
0.730199 5.18436 0.333441 0 0 255
0.742975 5.19243 0.301806 0 0 255
0.766222 5.19777 0.251516 0 0 255
0.756522 5.22083 0.204065 0 0 255
0.747076 5.23735 0.135213 0 0 255
0.742408 5.25872 0.103642 0 0 255
0.766841 5.28885 0.041364 0 0 255
0.768918 5.28963 -0.00429542 0 0 255
