ply
format ascii 1.0
element vertex 54
property float x
property float y
property float z
property uchar red
property uchar green
property uchar blue
end_header
0 0 0 0 0 0
1 0 0 0 0 0
1.3 0 0 0 0 0
-1.3 0 0 0 0 0
0.512943 3.99814 -0.0777378 0 0 255
0.52121 4.01303 -0.139416 0 0 255
0.520178 4.03661 -0.221398 0 0 255
0.509607 4.0476 -0.271995 0 0 255
0.491304 4.04955 -0.344391 0 0 255
0.449973 4.09072 -0.419189 0 0 255
0.396187 4.07303 -0.498028 0 0 255
0.336614 4.11161 -0.56292 0 0 255
0.270412 4.12884 -0.585324 0 0 255
0.202908 4.12957 -0.674393 0 0 255
0.122493 4.16982 -0.690292 0 0 255
0.0452225 4.19081 -0.700695 0 0 255
-0.0652393 4.20007 -0.737864 0 0 255
-0.146718 4.19971 -0.746543 0 0 255
-0.223103 4.25408 -0.722696 0 0 255
-0.322584 4.25595 -0.702247 0 0 255
-0.425591 4.30029 -0.649939 0 0 255
-0.518429 4.32744 -0.615545 0 0 255
-0.578577 4.35087 -0.564659 0 0 255
-0.646016 4.35167 -0.481123 0 0 255
-0.713655 4.37667 -0.404374 0 0 255
-0.786715 4.41956 -0.304117 0 0 255
-0.826874 4.44915 -0.189824 0 0 255
-0.836464 4.48942 -0.102163 0 0 255
-0.872925 4.50371 0.00679083 0 0 255
-0.855253 4.53597 0.103337 0 0 255
-0.863428 4.54365 0.212897 0 0 255
-0.815829 4.60207 0.32407 0 0 255
-0.767911 4.60412 0.440625 0 0 255
-0.71919 4.65899 0.529452 0 0 255
-0.656782 4.66741 0.587614 0 0 255
-0.570629 4.70662 0.684433 0 0 255
-0.469773 4.73929 0.761546 0 0 255
-0.37272 4.77375 0.799383 0 0 255
-0.269833 4.7987 0.833627 0 0 255
-0.156906 4.85961 0.8656 0 0 255
-0.0554677 4.87991 0.862882 0 0 255
0.0361147 4.89777 0.890313 0 0 255
0.198064 4.9652 0.870866 0 0 255
0.275215 4.96037 0.809471 0 0 255
0.366264 5.00102 0.781406 0 0 255
0.474246 5.0336 0.737199 0 0 255
0.546172 5.0739 0.636848 0 0 255
0.616154 5.10578 0.56416 0 0 255
0.669567 5.13716 0.489203 0 0 255
0.717398 5.17773 0.391226 0 0 255
0.746352 5.19951 0.303212 0 0 255
0.751757 5.24325 0.182398 0 0 255
0.769478 5.26455 0.099176 0 0 255
0.746575 5.29777 0.00316476 0 0 255
