ply
format ascii 1.0
element vertex 54
property float x
property float y
property float z
property uchar red
property uchar green
property uchar blue
end_header
0 0 0 0 0 0
1 0 0 0 0 0
1.3 0 0 0 0 0
-1.3 0 0 0 0 0
0.514719 4.01463 -0.0590618 0 0 255
0.514768 4.02405 -0.139911 0 0 255
0.528919 4.03593 -0.202923 0 0 255
0.514223 4.05668 -0.274204 0 0 255
0.490237 4.0551 -0.330115 0 0 255
0.465595 4.10257 -0.43717 0 0 255
0.406042 4.09026 -0.495424 0 0 255
0.363173 4.11346 -0.569888 0 0 255
0.291496 4.11712 -0.589032 0 0 255
0.198638 4.14875 -0.652368 0 0 255
0.129315 4.17028 -0.697969 0 0 255
0.0457871 4.20383 -0.708369 0 0 255
-0.0514104 4.20069 -0.720633 0 0 255
-0.141618 4.24067 -0.726014 0 0 255
-0.238082 4.25694 -0.738593 0 0 255
-0.315892 4.26643 -0.696969 0 0 255
-0.42743 4.29574 -0.6469 0 0 255
-0.514114 4.3191 -0.623894 0 0 255
-0.592983 4.34315 -0.554362 0 0 255
-0.652896 4.37897 -0.473916 0 0 255
-0.730093 4.39004 -0.386546 0 0 255
-0.790624 4.42186 -0.314474 0 0 255
-0.813885 4.44949 -0.212787 0 0 255
-0.840421 4.48191 -0.105002 0 0 255
-0.887435 4.49252 -0.0116488 0 0 255
-0.866067 4.52124 0.0853623 0 0 255
-0.854158 4.54168 0.215269 0 0 255
-0.81949 4.60352 0.3116 0 0 255
-0.778708 4.62999 0.425272 0 0 255
-0.705799 4.64653 0.512991 0 0 255
-0.655775 4.68827 0.606251 0 0 255
-0.554833 4.70198 0.684828 0 0 255
-0.477369 4.74797 0.766149 0 0 255
-0.38497 4.78535 0.803117 0 0 255
-0.264374 4.79795 0.846669 0 0 255
-0.188735 4.8368 0.870308 0 0 255
-0.0496758 4.88016 0.887172 0 0 255
0.0512188 4.91519 0.863743 0 0 255
0.158555 4.9445 0.853133 0 0 255
0.277247 4.95726 0.825005 0 0 255
0.360889 4.99197 0.775741 0 0 255
0.465124 5.01516 0.723418 0 0 255
0.524195 5.06277 0.649979 0 0 255
0.620356 5.08811 0.568536 0 0 255
0.676866 5.12066 0.465507 0 0 255
0.71561 5.1614 0.407186 0 0 255
0.730698 5.19972 0.297034 0 0 255
0.757707 5.23114 0.183653 0 0 255
0.755094 5.27295 0.107045 0 0 255
0.751461 5.30268 0.00557654 0 0 255
