ply
format ascii 1.0
element vertex 54
property float x
property float y
property float z
property uchar red
property uchar green
property uchar blue
end_header
0 0 0 0 255 0
1 0 0 0 255 0
1.52792 0.212523 0.301248 0 255 0
-0.734386 0.288548 0.205125 0 255 0
0.50555 4.00091 0.00951182 255 255 255
0.523658 4.01805 -0.0558062 255 255 255
0.528787 4.02921 -0.129321 255 255 255
0.5287 4.04226 -0.196632 255 255 255
0.507342 4.05754 -0.270513 255 255 255
0.489263 4.06879 -0.342132 255 255 255
0.451237 4.08589 -0.415527 255 255 255
0.411655 4.09762 -0.484908 255 255 255
0.350979 4.11121 -0.542952 255 255 255
0.284789 4.13334 -0.596729 255 255 255
0.214767 4.14701 -0.642623 255 255 255
0.134044 4.17375 -0.682831 255 255 255
0.0470516 4.18958 -0.713013 255 255 255
-0.039063 4.20898 -0.721141 255 255 255
-0.133908 4.23092 -0.725057 255 255 255
-0.231178 4.2492 -0.719109 255 255 255
-0.327176 4.27449 -0.698006 255 255 255
-0.413777 4.29571 -0.65795 255 255 255
-0.50867 4.32178 -0.60816 255 255 255
-0.583849 4.34659 -0.551463 255 255 255
-0.659992 4.37482 -0.477932 255 255 255
-0.72573 4.39317 -0.39635 255 255 255
-0.77337 4.42146 -0.309715 255 255 255
-0.822231 4.44516 -0.206734 255 255 255
-0.850794 4.47853 -0.107322 255 255 255
-0.856385 4.50035 0.00229571 255 255 255
-0.861454 4.53128 0.11647 255 255 255
-0.843694 4.55824 0.218399 255 255 255
-0.817273 4.58859 0.330231 255 255 255
-0.775574 4.62589 0.428032 255 255 255
-0.714519 4.65125 0.532635 255 255 255
-0.649543 4.68559 0.611701 255 255 255
-0.56402 4.71602 0.692892 255 255 255
-0.473224 4.74912 0.759564 255 255 255
-0.379793 4.77195 0.809559 255 255 255
-0.274726 4.80352 0.849793 255 255 255
-0.163503 4.83984 0.878144 255 255 255
-0.0553658 4.8691 0.889731 255 255 255
0.0556424 4.90538 0.887367 255 255 255
0.16969 4.93979 0.867747 255 255 255
0.275101 4.96824 0.829033 255 255 255
0.373091 5.00216 0.780598 255 255 255
0.464532 5.04088 0.729259 255 255 255
0.539835 5.06991 0.658681 255 255 255
0.614484 5.10383 0.57985 255 255 255
0.673329 5.13809 0.492947 255 255 255
0.719426 5.17465 0.394376 255 255 255
0.744734 5.20828 0.298825 255 255 255
0.767073 5.24188 0.195164 255 255 255
0.767509 5.27061 0.103413 255 255 255
