ply
format ascii 1.0
element vertex 54
property float x
property float y
property float z
property uchar red
property uchar green
property uchar blue
end_header
0 0 0 0 0 0
1 0 0 0 0 0
1.3 0 0 0 0 0
-1.3 0 0 0 0 0
0.51199 4.00958 -0.0654845 0 0 255
0.516117 4.03267 -0.138925 0 0 255
0.495624 4.04537 -0.203532 0 0 255
0.502949 4.052 -0.28742 0 0 255
0.480219 4.06512 -0.361927 0 0 255
0.430071 4.083 -0.402847 0 0 255
0.39307 4.09972 -0.483675 0 0 255
0.346538 4.11441 -0.555134 0 0 255
0.28985 4.13041 -0.602477 0 0 255
0.214794 4.12915 -0.653055 0 0 255
0.136249 4.1733 -0.683704 0 0 255
0.0371199 4.18443 -0.731816 0 0 255
-0.0451224 4.19169 -0.72553 0 0 255
-0.154232 4.24305 -0.735227 0 0 255
-0.236214 4.24925 -0.728874 0 0 255
-0.315221 4.26438 -0.707393 0 0 255
-0.428303 4.29497 -0.658276 0 0 255
-0.508337 4.31926 -0.630793 0 0 255
-0.592873 4.33563 -0.545994 0 0 255
-0.67677 4.34494 -0.484548 0 0 255
-0.747383 4.38973 -0.405134 0 0 255
-0.779135 4.42969 -0.31164 0 0 255
-0.824292 4.44427 -0.215238 0 0 255
-0.843435 4.46386 -0.105321 0 0 255
-0.860191 4.51385 0.00585684 0 0 255
-0.866017 4.52637 0.0974475 0 0 255
-0.850921 4.5575 0.220488 0 0 255
-0.802552 4.59777 0.340093 0 0 255
-0.771848 4.61146 0.422836 0 0 255
-0.722531 4.64508 0.541664 0 0 255
-0.646542 4.66622 0.625312 0 0 255
-0.580015 4.708 0.685362 0 0 255
-0.4728 4.73774 0.756572 0 0 255
-0.380571 4.75881 0.818417 0 0 255
-0.290813 4.78327 0.840955 0 0 255
-0.153701 4.83282 0.871035 0 0 255
-0.0531841 4.87048 0.892194 0 0 255
0.0733774 4.89636 0.885116 0 0 255
0.166943 4.94343 0.869769 0 0 255
0.282694 4.94468 0.817977 0 0 255
0.370971 5.00925 0.773199 0 0 255
0.449413 5.03249 0.720344 0 0 255
0.54663 5.0596 0.667299 0 0 255
0.592812 5.09798 0.567708 0 0 255
0.673025 5.12865 0.486045 0 0 255
0.722395 5.15735 0.393623 0 0 255
0.743909 5.20258 0.305396 0 0 255
0.776153 5.23448 0.175642 0 0 255
0.778444 5.28184 0.11017 0 0 255
0.74565 5.29331 -0.0208428 0 0 255
