ply
format ascii 1.0
element vertex 54
property float x
property float y
property float z
property uchar red
property uchar green
property uchar blue
end_header
0 0 0 0 255 0
1 0 0 0 255 0
1.3 0 0 0 255 0
-1.3 0 0 0 255 0
0.500732 4.00641 0.00532625 255 255 255
0.515797 4.01712 -0.0641479 255 255 255
0.52744 4.02364 -0.12952 255 255 255
0.525633 4.03741 -0.19858 255 255 255
0.509325 4.05323 -0.272888 255 255 255
0.485013 4.06961 -0.348164 255 255 255
0.44943 4.08635 -0.41248 255 255 255
0.40975 4.09835 -0.48005 255 255 255
0.350373 4.11093 -0.540421 255 255 255
0.288297 4.13741 -0.598546 255 255 255
0.216847 4.14626 -0.648943 255 255 255
0.131938 4.16515 -0.680078 255 255 255
0.0466044 4.18963 -0.705826 255 255 255
-0.0397089 4.20597 -0.728805 255 255 255
-0.136502 4.22988 -0.727034 255 255 255
-0.226148 4.25391 -0.720263 255 255 255
-0.328177 4.2774 -0.698697 255 255 255
-0.421731 4.29671 -0.657911 255 255 255
-0.501767 4.32217 -0.608399 255 255 255
-0.584414 4.35049 -0.547629 255 255 255
-0.662374 4.37081 -0.474844 255 255 255
-0.724433 4.39705 -0.391867 255 255 255
-0.77932 4.42489 -0.305185 255 255 255
-0.820993 4.44795 -0.205224 255 255 255
-0.84722 4.47872 -0.106848 255 255 255
-0.864788 4.50557 0.00748292 255 255 255
-0.86101 4.5355 0.114563 255 255 255
-0.843942 4.5645 0.227493 255 255 255
-0.817481 4.59176 0.32972 255 255 255
-0.77602 4.61849 0.431423 255 255 255
-0.711132 4.65148 0.532008 255 255 255
-0.643067 4.6871 0.614951 255 255 255
-0.563062 4.71158 0.689572 255 255 255
-0.477736 4.74592 0.759027 255 255 255
-0.372795 4.77233 0.809213 255 255 255
-0.267253 4.80549 0.854667 255 255 255
-0.160843 4.84227 0.877238 255 255 255
-0.0546128 4.87127 0.88509 255 255 255
0.0554894 4.90734 0.885893 255 255 255
0.169026 4.94131 0.868876 255 255 255
0.277828 4.97315 0.830383 255 255 255
0.375191 5.00355 0.783467 255 255 255
0.459883 5.03322 0.727696 255 255 255
0.541866 5.06774 0.653924 255 255 255
0.615978 5.10866 0.575472 255 255 255
0.674477 5.14039 0.490546 255 255 255
0.715448 5.1696 0.394396 255 255 255
0.74985 5.204 0.301018 255 255 255
0.767547 5.23744 0.199323 255 255 255
0.766509 5.2755 0.0990909 255 255 255
