ply
format ascii 1.0
element vertex 54
property float x
property float y
property float z
property uchar red
property uchar green
property uchar blue
end_header
0 0 0 0 255 0
1 0 0 0 255 0
1.55809 0.0125332 0.232651 0 255 0
-0.967424 0.0855261 0.618531 0 255 0
0.621531 3.87298 0.222479 255 255 255
0.6416 3.88157 0.155158 255 255 255
0.650134 3.88697 0.0964144 255 255 255
0.644296 3.90275 0.0231407 255 255 255
0.635059 3.90833 -0.045371 255 255 255
0.611013 3.91128 -0.111499 255 255 255
0.574499 3.92573 -0.178974 255 255 255
0.533534 3.93019 -0.238936 255 255 255
0.48382 3.94853 -0.301229 255 255 255
0.417809 3.95601 -0.355067 255 255 255
0.349333 3.97105 -0.395962 255 255 255
0.278636 3.98222 -0.427401 255 255 255
0.197601 3.99578 -0.451773 255 255 255
0.11016 4.00688 -0.466327 255 255 255
0.0245954 4.02223 -0.472011 255 255 255
-0.0707803 4.04621 -0.461517 255 255 255
-0.153679 4.05808 -0.432977 255 255 255
-0.244443 4.08112 -0.406637 255 255 255
-0.328205 4.09773 -0.360224 255 255 255
-0.40128 4.11953 -0.296216 255 255 255
-0.469393 4.14212 -0.228232 255 255 255
-0.535267 4.16051 -0.152948 255 255 255
-0.587802 4.18017 -0.0700737 255 255 255
-0.619677 4.20903 0.024991 255 255 255
-0.649523 4.23166 0.124331 255 255 255
-0.660825 4.25965 0.224558 255 255 255
-0.667661 4.28515 0.329353 255 255 255
-0.654831 4.30855 0.428919 255 255 255
-0.627506 4.3422 0.533005 255 255 255
-0.587116 4.37214 0.625174 255 255 255
-0.528124 4.40588 0.713432 255 255 255
-0.467054 4.4446 0.801007 255 255 255
-0.397882 4.47288 0.877277 255 255 255
-0.313064 4.51999 0.939257 255 255 255
-0.217948 4.55571 0.988479 255 255 255
-0.115004 4.59495 1.02767 255 255 255
-0.0179817 4.6366 1.06218 255 255 255
0.0931856 4.67897 1.06854 255 255 255
0.192447 4.7207 1.06409 255 255 255
0.293887 4.76314 1.05317 255 255 255
0.397038 4.80246 1.01833 255 255 255
0.492051 4.83762 0.973837 255 255 255
0.584005 4.87586 0.918417 255 255 255
0.659204 4.9127 0.850928 255 255 255
0.731426 4.95206 0.779371 255 255 255
0.788686 4.98437 0.6885 255 255 255
0.823069 5.00907 0.602405 255 255 255
0.852898 5.0385 0.503392 255 255 255
0.873174 5.07037 0.413553 255 255 255
0.878102 5.0979 0.316262 255 255 255
