ply
format ascii 1.0
element vertex 64
property float x
property float y
property float z
property uchar red
property uchar green
property uchar blue
end_header
0 0 0 0 0 0
1 0 0 0 0 0
1.3 0 0 0 0 0
-1.3 0 0 0 0 0
0.508491 4.00341 -0.0585219 0 0 255
0.510215 4.01002 -0.118125 0 0 255
0.529462 4.01623 -0.169284 0 0 255
0.519268 4.02507 -0.214633 0 0 255
0.483689 4.05068 -0.305146 0 0 255
0.483065 4.05851 -0.355412 0 0 255
0.44679 4.07866 -0.414477 0 0 255
0.416073 4.09851 -0.453836 0 0 255
0.38424 4.0993 -0.515643 0 0 255
0.320484 4.11092 -0.581264 0 0 255
0.266029 4.12031 -0.624117 0 0 255
0.209104 4.15827 -0.655863 0 0 255
0.156477 4.16596 -0.682602 0 0 255
0.0719078 4.17725 -0.672825 0 0 255
0.0109368 4.20113 -0.713709 0 0 255
-0.0784334 4.2268 -0.727002 0 0 255
-0.15375 4.21797 -0.739759 0 0 255
-0.236551 4.24113 -0.73223 0 0 255
-0.31541 4.29106 -0.706317 0 0 255
-0.372574 4.28256 -0.677462 0 0 255
-0.469388 4.31416 -0.632056 0 0 255
-0.535401 4.34751 -0.576239 0 0 255
-0.60641 4.35816 -0.535365 0 0 255
-0.677557 4.36487 -0.475186 0 0 255
-0.705112 4.3817 -0.424963 0 0 255
-0.781848 4.40447 -0.350845 0 0 255
-0.805064 4.42676 -0.252912 0 0 255
-0.833041 4.45985 -0.18918 0 0 255
-0.858781 4.4749 -0.0979094 0 0 255
-0.867634 4.50289 3.893e-06 0 0 255
-0.853939 4.51649 0.0881392 0 0 255
-0.858333 4.55449 0.18635 0 0 255
-0.852994 4.55972 0.275812 0 0 255
-0.804051 4.60114 0.359106 0 0 255
-0.753594 4.62852 0.421311 0 0 255
-0.74608 4.63625 0.531266 0 0 255
-0.660601 4.66984 0.603971 0 0 255
-0.580739 4.69682 0.694732 0 0 255
-0.522101 4.72963 0.714226 0 0 255
-0.445371 4.75587 0.766251 0 0 255
-0.364561 4.7857 0.815473 0 0 255
-0.267363 4.80796 0.84541 0 0 255
-0.177812 4.82152 0.861891 0 0 255
-0.105904 4.8515 0.886615 0 0 255
-0.00703772 4.87613 0.886036 0 0 255
0.0865163 4.90275 0.866736 0 0 255
0.168989 4.94447 0.83247 0 0 255
0.268326 4.96688 0.835494 0 0 255
0.354916 4.9969 0.803452 0 0 255
0.411817 5.01198 0.731536 0 0 255
0.494012 5.03643 0.698048 0 0 255
0.563362 5.07691 0.628424 0 0 255
0.612008 5.08647 0.554339 0 0 255
0.664808 5.12834 0.511303 0 0 255
0.703452 5.15549 0.424363 0 0 255
0.7316 5.19797 0.327574 0 0 255
0.741874 5.23139 0.24186 0 0 255
0.76399 5.22671 0.179027 0 0 255
0.765611 5.28989 0.0782186 0 0 255
0.752346 5.28557 -0.00034144 0 0 255
