ply
format ascii 1.0
element vertex 54
property float x
property float y
property float z
property uchar red
property uchar green
property uchar blue
end_header
0 0 0 0 255 0
1 0 0 0 255 0
1.40931 0.200375 0.218662 0 255 0
-0.619856 0.247209 0.532354 0 255 0
0.509551 4.00791 0.000554444 255 255 255
0.525101 4.02065 -0.0629775 255 255 255
0.526971 4.02674 -0.127086 255 255 255
0.523397 4.03627 -0.20178 255 255 255
0.511895 4.05563 -0.272243 255 255 255
0.485874 4.06844 -0.344492 255 255 255
0.454837 4.08727 -0.416082 255 255 255
0.413291 4.09702 -0.480233 255 255 255
0.351887 4.11654 -0.545195 255 255 255
0.287162 4.13699 -0.595588 255 255 255
0.218406 4.15466 -0.644486 255 255 255
0.138725 4.17285 -0.682098 255 255 255
0.0545621 4.18686 -0.714749 255 255 255
-0.0393171 4.21096 -0.728863 255 255 255
-0.139311 4.22744 -0.724692 255 255 255
-0.228311 4.25234 -0.719091 255 255 255
-0.326668 4.27123 -0.696606 255 255 255
-0.413825 4.29408 -0.657141 255 255 255
-0.504043 4.32106 -0.612019 255 255 255
-0.581465 4.34825 -0.551674 255 255 255
-0.656467 4.37012 -0.480494 255 255 255
-0.724069 4.39315 -0.39982 255 255 255
-0.780976 4.41894 -0.305909 255 255 255
-0.821572 4.4524 -0.210955 255 255 255
-0.847857 4.48036 -0.105016 255 255 255
-0.863083 4.50504 0.00773974 255 255 255
-0.858134 4.53648 0.118651 255 255 255
-0.848975 4.56339 0.218954 255 255 255
-0.811744 4.58837 0.330067 255 255 255
-0.773903 4.61805 0.429522 255 255 255
-0.71306 4.64695 0.529418 255 255 255
-0.640646 4.68294 0.618459 255 255 255
-0.568593 4.71576 0.697136 255 255 255
-0.47399 4.73952 0.761039 255 255 255
-0.37478 4.7753 0.812863 255 255 255
-0.267406 4.81016 0.857792 255 255 255
-0.160739 4.83981 0.881347 255 255 255
-0.050421 4.87378 0.88809 255 255 255
0.0611421 4.90559 0.885508 255 255 255
0.165026 4.94167 0.868054 255 255 255
0.271927 4.97158 0.835032 255 255 255
0.3767 5.0044 0.78395 255 255 255
0.4649 5.03855 0.722358 255 255 255
0.544447 5.06681 0.652185 255 255 255
0.610571 5.10575 0.576696 255 255 255
0.672721 5.13733 0.486437 255 255 255
0.716817 5.16664 0.397828 255 255 255
0.745328 5.20522 0.29696 255 255 255
0.766026 5.23432 0.20351 255 255 255
0.764603 5.26838 0.103642 255 255 255
