ply
format ascii 1.0
element vertex 14
property float x
property float y
property float z
property uchar red
property uchar green
property uchar blue
end_header
0 0 0 0 255 0
0 0 0 0 255 0
0 0 0 0 255 0
0 0 0 0 255 0
-0.420643 4.35745 0.424941 255 255 255
-0.991177 5.14786 0.0651636 255 255 255
-1.7956 5.80616 -0.245938 255 255 255
-2.58892 5.78003 0.208508 255 255 255
-3.07878 6.1782 0.967548 255 255 255
-2.91282 6.54473 1.83763 255 255 255
-2.20254 6.88578 2.33858 255 255 255
-0.865517 5.73213 2.06063 255 255 255
-0.580221 6.51629 1.51391 255 255 255
-0.469927 6.23017 0.864493 255 255 255
