ply
format ascii 1.0
element vertex 54
property float x
property float y
property float z
property uchar red
property uchar green
property uchar blue
end_header
0 0 0 255 255 255
1 0 0 255 255 255
1.32257 0.031827 0.0190265 255 255 255
-1.45269 0.0525212 -0.0279037 255 255 255
0.510509 4.00789 -0.0612711 0 255 0
0.544397 3.81051 -0.122494 0 255 0
0.494928 4.04431 -0.202561 0 255 0
0.504344 4.04959 -0.284254 0 255 0
0.481422 4.06628 -0.361141 0 255 0
0.277467 4.97868 -0.493908 0 255 0
0.352568 4.36824 -0.511327 0 255 0
0.3471 4.12408 -0.555302 0 255 0
0.289057 4.12826 -0.600116 0 255 0
0.218059 4.1367 -0.653881 0 255 0
0.136134 4.17094 -0.682156 0 255 0
0.0486326 4.19292 -0.723301 0 255 0
-0.0455023 4.19478 -0.723988 0 255 0
-0.153704 4.25234 -0.736399 0 255 0
-0.238707 4.25589 -0.727993 0 255 0
-0.317361 4.26797 -0.705891 0 255 0
-0.431281 4.30012 -0.657966 0 255 0
-0.506558 4.32364 -0.629603 0 255 0
-0.59186 4.34174 -0.547181 0 255 0
-0.678293 4.34763 -0.486143 0 255 0
-0.750817 4.39642 -0.400583 0 255 0
-0.776655 4.43422 -0.31042 0 255 0
-0.825462 4.45274 -0.218192 0 255 0
-0.831062 4.45857 -0.100821 0 255 0
-0.857974 4.51327 0.00499513 0 255 0
-0.863105 4.51967 0.0962323 0 255 0
-0.850431 4.56102 0.217347 0 255 0
-0.799554 4.58993 0.336112 0 255 0
-0.771623 4.59834 0.417381 0 255 0
-0.71827 4.63291 0.536177 0 255 0
-0.635203 4.65362 0.614403 0 255 0
-0.577019 4.6845 0.679319 0 255 0
-0.427256 5.00505 0.847663 0 255 0
-0.37975 4.74277 0.813333 0 255 0
-0.290127 4.76518 0.835608 0 255 0
-0.149285 4.80585 0.865577 0 255 0
-0.0504062 4.83685 0.882995 0 255 0
0.0634319 4.81515 0.88003 0 255 0
0.298147 3.73708 0.661496 0 255 0
0.37836 4.34621 0.716649 0 255 0
0.369939 4.94969 0.762941 0 255 0
0.449574 4.98579 0.715017 0 255 0
0.581824 6.21638 0.783359 0 255 0
0.593642 5.01783 0.563129 0 255 0
0.674655 5.0622 0.479344 0 255 0
0.733999 4.92916 0.366708 0 255 0
0.738917 5.20383 0.310806 0 255 0
0.776874 5.1459 0.171738 0 255 0
0.779769 5.19056 0.109528 0 255 0
0.747073 5.20967 -0.0177273 0 255 0
