ply
format ascii 1.0
element vertex 54
property float x
property float y
property float z
property uchar red
property uchar green
property uchar blue
end_header
0 0 0 0 255 0
0 0 0 0 255 0
0 0 0 0 255 0
0 0 0 0 255 0
-97.3832 -13.3221 1239.79 255 255 255
-84.1522 -112.111 1919.88 255 255 255
-24.9395 2.73225 1473.69 255 255 255
-8.52208e+10 1.40113e+11 -4.4495e+10 255 255 255
-32.2437 -94.1242 1855.85 255 255 255
-96.1567 334.557 701.488 255 255 255
-22.9461 54.7743 1271.02 255 255 255
-19.7698 76.515 1224.64 255 255 255
-17.9026 87.2219 1205.96 255 255 255
-16.8516 95.5826 1190.14 255 255 255
-14.9419 91.3549 1206.09 255 255 255
-14.0269 85.1786 1223.66 255 255 255
-12.6857 65.0396 1271.34 255 255 255
-11.7009 70.045 1270.87 255 255 255
-11.3562 60.159 1301.42 255 255 255
-11.3668 62.0405 1303.57 255 255 255
-11.966 58.4881 1319.06 255 255 255
-14.3964 104.708 1218.86 255 255 255
-14.894 45.8614 1356.89 255 255 255
-17.2053 97.8942 1233.89 255 255 255
-20.5715 126.6 1172.28 255 255 255
-27.8663 180.106 1064.79 255 255 255
-41.4601 245.703 944.985 255 255 255
-62.2049 312.742 825.251 255 255 255
-93.3847 378.588 699.243 255 255 255
-116.447 408.001 633.152 255 255 255
-136.903 421.715 594.608 255 255 255
-147.564 428.242 588.574 255 255 255
-135.206 422.156 594.936 255 255 255
-112.933 368.824 575.253 255 255 255
-61.7267 171.716 518.982 255 255 255
-60.0167 60.8321 464.176 255 255 255
-88.1804 42.351 499.025 255 255 255
-114.241 39.9892 595.86 255 255 255
-144.88 5.09363 815.315 255 255 255
-177.318 -61.9531 1069.06 255 255 255
-202.377 -117.689 1246.51 255 255 255
-222.439 -160.414 1371.33 255 255 255
-236.912 -187.957 1442.06 255 255 255
-240.828 -187.827 1434.69 255 255 255
-222.557 -141.866 1265.54 255 255 255
-187.89 -73.6813 999.719 255 255 255
-133.563 9.44879 625.45 255 255 255
-69.939 75.8979 209.108 255 255 255
-22.7229 80.7162 -103.807 255 255 255
-13.5847 27.9295 -145.754 255 255 255
-165.906 261.829 523.508 255 255 255
-53.9074 26.3016 903.748 255 255 255
151.716 -115.89 1425.13 255 255 255
1836.96 -3332.35 2743.37 255 255 255
