ply
format ascii 1.0
element vertex 54
property float x
property float y
property float z
property uchar red
property uchar green
property uchar blue
end_header
0 0 0 0 255 0
0 0 0 0 255 0
0 0 0 0 255 0
0 0 0 0 255 0
7.26199 -3.15242 0.495817 255 255 255
31.6926 -5.06581 -5.87829 255 255 255
63.2359 -5.87971 -5.11239 255 255 255
2.42819 0.327799 -2.98627 255 255 255
183.023 -168.303 -210.817 255 255 255
36833.7 -32603.1 -26871.3 255 255 255
-44.076 19.2205 -11.8213 255 255 255
-96327.3 92729.5 38198.5 255 255 255
-3.34946e+07 2.74908e+07 3.21257e+07 255 255 255
-5.43908e+07 3.9011e+07 3.86087e+07 255 255 255
7.97534e+06 -4.41845e+06 -5.11197e+06 255 255 255
-74019 16029.3 45694.7 255 255 255
5.98549e+06 -3.32535e+06 -4.6067e+06 255 255 255
703532 -430121 -637115 255 255 255
174135 -77851.5 -157052 255 255 255
198559 -63339.2 -174557 255 255 255
4.85636 25.3896 -6.34628 255 255 255
374.93 -57.6575 -328.52 255 255 255
41.8463 0.735009 -29.1073 255 255 255
0.394255 2.96195 0.618302 255 255 255
-2.21352 4.82892 0.960284 255 255 255
0.496242 2.83642 1.12445 255 255 255
10.6978 15.3836 -2.00764 255 255 255
3.71174 1.90729 1.21917 255 255 255
3.67839 1.78602 1.22364 255 255 255
3.47941 1.37796 1.23196 255 255 255
3.61495 1.52034 1.13548 255 255 255
3.49254 1.6867 1.24893 255 255 255
3.51224 1.53706 1.1873 255 255 255
3.56749 2.25725 1.21398 255 255 255
15.3935 25.6637 -6.72032 255 255 255
5.29504 2.8795 0.873509 255 255 255
3.08432 2.17088 1.49842 255 255 255
2.33787 1.57421 1.45574 255 255 255
2.6899 0.836374 1.58998 255 255 255
4.83364 0.383793 2.50664 255 255 255
6.30641 -0.352382 2.47625 255 255 255
5.58646 -0.226518 2.06061 255 255 255
5.17008 -0.490531 0.981716 255 255 255
5.42717 -0.472699 1.05035 255 255 255
6.01943 0.18744 2.50313 255 255 255
3.58919 0.383022 0.806481 255 255 255
6.30385 -1.64057 2.78343 255 255 255
-0.631884 -0.985066 -1.94542 255 255 255
4.86981 -1.59013 3.12691 255 255 255
3.76807 0.796162 1.34189 255 255 255
6.84459 -0.505893 3.03986 255 255 255
6.57409 -0.155595 2.43654 255 255 255
6.64713 -0.0935962 2.78977 255 255 255
7.10925 -0.688633 2.41139 255 255 255
