ply
format ascii 1.0
element vertex 64
property float x
property float y
property float z
property uchar red
property uchar green
property uchar blue
end_header
0 0 0 255 255 255
0 0 0 255 255 255
0 0 0 255 255 255
0 0 0 255 255 255
0.516712 3.90421 -0.0539444 0 255 0
0.502916 4.08701 -0.130113 0 255 0
0.560918 3.89173 -0.13914 0 255 0
0.51089 4.11505 -0.227986 0 255 0
0.46816 4.1618 -0.319936 0 255 0
0.473922 4.1463 -0.369552 0 255 0
0.514262 3.63998 -0.366274 0 255 0
0.393135 4.23038 -0.450664 0 255 0
0.373013 4.19077 -0.533086 0 255 0
0.305095 4.21016 -0.599216 0 255 0
0.254167 4.21609 -0.640793 0 255 0
0.195852 4.24954 -0.67505 0 255 0
0.141748 4.2642 -0.700657 0 255 0
0.0540066 4.25887 -0.691166 0 255 0
-0.00584464 4.29096 -0.73214 0 255 0
-0.0949039 4.31067 -0.744135 0 255 0
-0.0936475 3.95752 -0.658305 0 255 0
-0.207134 4.12626 -0.658156 0 255 0
-0.334233 4.36109 -0.718333 0 255 0
-0.389182 4.35207 -0.68729 0 255 0
-0.48434 4.37196 -0.642235 0 255 0
-0.544368 4.43032 -0.59796 0 255 0
-0.620104 4.40779 -0.542097 0 255 0
-0.691209 4.41023 -0.479519 0 255 0
-0.718612 4.45015 -0.403562 0 255 0
-0.79028 4.4397 -0.357403 0 255 0
-0.813999 4.45702 -0.258752 0 255 0
-0.837238 4.49065 -0.198197 0 255 0
-0.865441 4.49596 -0.104467 0 255 0
-0.870359 4.50811 -0.00249356 0 255 0
-0.744292 4.20784 0.11906 0 255 0
-0.858773 4.59734 0.192615 0 255 0
-0.855319 4.56353 0.270978 0 255 0
-0.80419 4.60013 0.351097 0 255 0
-0.755083 4.58183 0.41959 0 255 0
-0.743544 4.63554 0.525048 0 255 0
-0.658487 4.65719 0.597183 0 255 0
-0.580778 4.68385 0.689115 0 255 0
-0.514509 4.73856 0.721705 0 255 0
-0.442187 4.7388 0.759443 0 255 0
-0.366991 4.73368 0.790645 0 255 0
-0.266777 4.7944 0.841765 0 255 0
-0.175724 4.80398 0.854238 0 255 0
-0.104471 4.83224 0.884145 0 255 0
-0.0053321 4.856 0.882765 0 255 0
0.0883436 4.87858 0.863038 0 255 0
0.166956 4.92524 0.828739 0 255 0
0.26715 4.94798 0.831424 0 255 0
0.356243 4.98645 0.806651 0 255 0
0.408753 4.9954 0.729618 0 255 0
0.495126 5.03398 0.697523 0 255 0
0.561414 5.05512 0.628756 0 255 0
0.608001 5.08089 0.556643 0 255 0
0.661763 5.13316 0.516509 0 255 0
0.701228 5.15656 0.427265 0 255 0
0.727005 5.19298 0.332327 0 255 0
0.738311 5.23752 0.248446 0 255 0
0.835227 4.59915 0.137579 0 255 0
0.808075 5.43998 0.0773995 0 255 0
0.750897 5.30311 0.00699902 0 255 0
