ply
format ascii 1.0
element vertex 54
property float x
property float y
property float z
property uchar red
property uchar green
property uchar blue
end_header
0 0 0 0 255 0
0 0 0 0 255 0
0 0 0 0 255 0
0 0 0 0 255 0
-7.59872e+22 -4.62506e+22 -1.55293e+22 255 255 255
4.45e+22 1.04984e+22 -7.36561e+22 255 255 255
1.54605e+21 1.11184e+21 -1.076e+21 255 255 255
5.86802e+21 1.76014e+21 -7.98715e+21 255 255 255
-9.96502e+20 -1.70361e+20 1.80064e+21 255 255 255
9.52971e+20 1.03843e+20 -1.91463e+21 255 255 255
-1.57662e+23 -2.95956e+22 2.19026e+23 255 255 255
-3.92258e+22 -3.1425e+21 6.08318e+22 255 255 255
-1.79029e+22 -2.51211e+22 1.20585e+22 255 255 255
1.43002e+20 2.48348e+21 5.03402e+20 255 255 255
-5.97115e+19 -3.45903e+19 9.28486e+18 255 255 255
-1.46378e+22 -5.4372e+21 3.76245e+21 255 255 255
6.02157e+19 -3.31851e+19 -1.71579e+19 255 255 255
2.25383e+21 1.19405e+20 -6.96162e+20 255 255 255
3.69581e+21 3.2508e+18 -1.13045e+21 255 255 255
-1.9032e+21 1.00154e+20 2.27404e+21 255 255 255
5.92755e+22 1.35691e+22 -1.5075e+22 255 255 255
-5.08647e+21 -1.07581e+21 1.38268e+21 255 255 255
1.35484e+22 2.51503e+21 -3.19564e+21 255 255 255
-8.92639e+21 -1.62083e+21 1.98808e+21 255 255 255
1.07763e+19 -4.70274e+18 1.63515e+16 255 255 255
-3.19708e+22 -1.86444e+21 4.33259e+21 255 255 255
-2.52769e+22 -1.04899e+22 2.04877e+21 255 255 255
7.04459e+19 9.37488e+19 1.12604e+19 255 255 255
-1.00297e+21 -8.37439e+20 -9.92406e+18 255 255 255
8.44578e+21 7.11698e+21 1.14516e+20 255 255 255
2.20663e+21 1.86071e+21 3.08752e+19 255 255 255
-2.93282e+21 -2.46882e+21 -3.94712e+19 255 255 255
-1.10885e+22 -9.31836e+21 -1.47995e+20 255 255 255
2.19747e+20 1.84954e+20 2.97791e+18 255 255 255
2.6761e+21 2.26163e+21 4.20134e+19 255 255 255
1.92153e+21 1.60632e+21 2.37454e+19 255 255 255
-5.67129e+20 -4.74893e+20 -6.8345e+18 255 255 255
-2.46111e+20 -2.08745e+20 -4.15717e+18 255 255 255
-1.55871e+21 -1.31467e+21 -3.17028e+19 255 255 255
-3.22197e+18 -2.22134e+18 4.58083e+17 255 255 255
6.96709e+20 5.94305e+20 1.73511e+19 255 255 255
-3.87645e+20 -3.19214e+20 6.44836e+18 255 255 255
-1.42278e+20 -1.19053e+20 -1.38049e+18 255 255 255
1.13561e+21 9.54558e+20 1.57531e+19 255 255 255
-5.66258e+20 -4.75746e+20 -7.66709e+18 255 255 255
7.50578e+20 6.2996e+20 1.00301e+19 255 255 255
1.1792e+20 9.8937e+19 1.56863e+18 255 255 255
-1.29665e+21 -1.08781e+21 -1.72788e+19 255 255 255
-3.04401e+19 -2.55403e+19 -4.05144e+17 255 255 255
3.35294e+19 2.81299e+19 4.64992e+17 255 255 255
-7.6796e+19 -6.44861e+19 -9.73007e+17 255 255 255
4.38148e+18 3.6785e+18 5.88929e+16 255 255 255
-1.89346e+19 -1.58921e+19 -2.58675e+17 255 255 255
-4.54849e+14 -3.80602e+14 1.72659e+13 255 255 255
