ply
format ascii 1.0
element vertex 54
property float x
property float y
property float z
property uchar red
property uchar green
property uchar blue
end_header
0 0 0 0 255 0
0 0 0 0 255 0
0 0 0 0 255 0
0 0 0 0 255 0
-2.99399 -0.0193349 -0.508851 255 255 255
-3.09969 -0.0953783 -1.4428 255 255 255
-2.74329 0.665009 -1.66708 255 255 255
-2.40537 1.01385 -2.33618 255 255 255
0.844719 3.13412 -6.56717 255 255 255
-0.366748 3.79632 -5.15592 255 255 255
-6.57136 -2.93728 -5.90955 255 255 255
-6.9123 -5.9772 -7.03931 255 255 255
-5.27707 -5.89472 -10.1063 255 255 255
-6.56526 -3.50666 -6.26156 255 255 255
-4.57805 -1.14182 -5.07424 255 255 255
-3.04914 0.0638036 -6.0495 255 255 255
-2.07281 -0.81587 -8.46981 255 255 255
-0.82412 -1.14103 -9.47976 255 255 255
0.545358 -0.14867 -14.8796 255 255 255
1.86546 0.215837 -15.7614 255 255 255
2.9836 0.66098 -16.4507 255 255 255
4.15966 1.00679 -16.225 255 255 255
4.88755 1.22656 -14.9295 255 255 255
5.30117 1.74404 -13.3913 255 255 255
5.73911 2.04126 -12.2712 255 255 255
5.38242 3.33305 -11.1283 255 255 255
2.74721 3.13402 -8.37861 255 255 255
0.761191 2.16101 -6.1465 255 255 255
-0.363028 2.73018 -6.07279 255 255 255
-0.423273 2.79149 -5.38524 255 255 255
-1.12291 2.28831 -4.37709 255 255 255
-2.09578 2.17252 -2.15285 255 255 255
0.184633 4.59104 -3.5206 255 255 255
2.63494 7.27438 -0.749702 255 255 255
1.00094 5.89304 -0.316147 255 255 255
-13.0795 -78.8231 -1.16431 255 255 255
-118.628 -2290.51 901.248 255 255 255
0.506031 27.0889 3.84848 255 255 255
2.90421 7.19009 -0.374242 255 255 255
-2.62305 0.35003 -0.676192 255 255 255
-4.68029 -2.13396 -3.4536 255 255 255
-6.25013 -5.62409 -5.41881 255 255 255
-6.45986 -6.18749 -6.20362 255 255 255
-6.50749 -5.86624 -6.34444 255 255 255
-6.73239 -6.06786 -6.75905 255 255 255
-7.37173 -7.55883 -7.50354 255 255 255
-8.65241 -11.6652 -9.0997 255 255 255
-9.64718 -16.2536 -11.1355 255 255 255
-9.51977 -20.878 -13.0976 255 255 255
-8.20422 -17.5688 -12.1938 255 255 255
-7.69825 -7.55428 -8.81723 255 255 255
-7.96717 -2.43671 -6.46377 255 255 255
-3.3872 1.54415 -5.32008 255 255 255
-3.19078 -0.484054 -1.84725 255 255 255
