ply
format ascii 1.0
element vertex 54
property float x
property float y
property float z
property uchar red
property uchar green
property uchar blue
end_header
0 0 0 255 255 255
0 0 0 255 255 255
0 0 0 255 255 255
0 0 0 255 255 255
0.585004 3.42002 -0.0626903 0 255 0
0.518533 3.94714 -0.137286 0 255 0
0.516059 3.96262 -0.217724 0 255 0
0.490965 3.92069 -0.258339 0 255 0
0.507925 4.05606 -0.34716 0 255 0
0.446261 4.01876 -0.413474 0 255 0
0.389761 3.94683 -0.483848 0 255 0
0.335401 4.0471 -0.562163 0 255 0
0.252797 3.99963 -0.58107 0 255 0
0.206245 4.06559 -0.663975 0 255 0
0.114111 4.06664 -0.668629 0 255 0
0.0459662 4.13109 -0.691363 0 255 0
-0.0589855 4.14181 -0.727005 0 255 0
-0.140635 4.14272 -0.735544 0 255 0
-0.209161 4.25143 -0.717974 0 255 0
-0.31327 4.19264 -0.695247 0 255 0
-0.425922 4.19484 -0.644859 0 255 0
-0.511347 4.28449 -0.611645 0 255 0
-0.567066 4.30353 -0.561769 0 255 0
-0.638692 4.32084 -0.477626 0 255 0
-0.705336 4.4082 -0.415832 0 255 0
-0.77623 4.38559 -0.304078 0 255 0
-0.82731 4.43003 -0.192555 0 255 0
-0.828776 4.45097 -0.0995812 0 255 0
-0.867838 4.48661 0.0060634 0 255 0
-0.852698 4.52233 0.103624 0 255 0
-0.860476 4.53183 0.21192 0 255 0
-0.813139 4.57811 0.322419 0 255 0
-0.763173 4.58391 0.439399 0 255 0
-0.716472 4.65349 0.53337 0 255 0
-0.656071 4.64813 0.588159 0 255 0
-0.56893 4.67977 0.68198 0 255 0
-0.467649 4.71363 0.760508 0 255 0
-0.370013 4.75615 0.797034 0 255 0
-0.266851 4.7839 0.833479 0 255 0
-0.158571 4.84617 0.864015 0 255 0
-0.0554488 4.85132 0.858856 0 255 0
0.0375508 4.8767 0.887232 0 255 0
0.197204 4.94093 0.867984 0 255 0
0.27273 4.95048 0.81048 0 255 0
0.365879 4.98121 0.779619 0 255 0
0.463599 4.97775 0.743249 0 255 0
0.54353 5.04739 0.63467 0 255 0
0.621694 4.93608 0.536855 0 255 0
0.649047 5.05237 0.493382 0 255 0
0.717533 5.16061 0.390726 0 255 0
0.771312 5.28718 0.298098 0 255 0
0.751133 5.24374 0.180852 0 255 0
0.749852 5.65147 0.11785 0 255 0
0.745805 5.28256 0.00344726 0 255 0
