ply
format ascii 1.0
element vertex 104
property float x
property float y
property float z
property uchar red
property uchar green
property uchar blue
end_header
0 0 0 255 255 255
1 0 0 255 255 255
1.30127 0.0128309 -0.040547 255 255 255
-1.34498 0.00504771 0.00481758 255 255 255
0.51441 4.02892 -0.0391083 0 255 0
0.497749 4.01158 -0.0645707 0 255 0
0.502758 4.01527 -0.105161 0 255 0
0.510397 4.00875 -0.153606 0 255 0
0.520095 4.03319 -0.180858 0 255 0
0.522619 4.03182 -0.185757 0 255 0
0.514231 3.96617 -0.243538 0 255 0
0.508848 4.06589 -0.292274 0 255 0
0.534062 4.08875 -0.314794 0 255 0
0.481664 4.03979 -0.350444 0 255 0
0.456464 4.06064 -0.389368 0 255 0
0.421255 4.06804 -0.434419 0 255 0
0.404708 4.07332 -0.466447 0 255 0
0.404748 4.09264 -0.501521 0 255 0
0.368622 4.11982 -0.520073 0 255 0
0.34377 4.10986 -0.560076 0 255 0
0.317242 4.12599 -0.581526 0 255 0
0.301152 4.14245 -0.602666 0 255 0
0.248187 4.09886 -0.633279 0 255 0
0.230673 4.14469 -0.65756 0 255 0
0.191125 4.15467 -0.679637 0 255 0
0.136131 4.17213 -0.685366 0 255 0
0.0970937 4.17984 -0.696425 0 255 0
0.0368153 4.13965 -0.711016 0 255 0
-0.00808131 4.20907 -0.709876 0 255 0
-0.0388162 4.21447 -0.737826 0 255 0
-0.0730196 4.22841 -0.733827 0 255 0
-0.116233 4.15333 -0.707631 0 255 0
-0.192434 4.24915 -0.737728 0 255 0
-0.234955 4.24852 -0.723114 0 255 0
-0.286633 4.27154 -0.728875 0 255 0
-0.339962 4.27457 -0.7077 0 255 0
-0.371577 4.29889 -0.681815 0 255 0
-0.432799 4.31235 -0.670808 0 255 0
-0.488403 4.33674 -0.660762 0 255 0
-0.505196 4.31498 -0.62656 0 255 0
-0.557337 4.33059 -0.583185 0 255 0
-0.596382 4.34137 -0.563803 0 255 0
-0.632554 4.29169 -0.499638 0 255 0
-0.450113 3.83784 -0.420814 0 255 0
-0.719745 4.37491 -0.464625 0 255 0
-0.727087 4.44748 -0.389276 0 255 0
-0.749534 4.3981 -0.37541 0 255 0
-0.787086 4.41349 -0.302437 0 255 0
-0.807183 4.43359 -0.300914 0 255 0
-0.804207 4.51517 -0.210505 0 255 0
-0.821056 4.47606 -0.150407 0 255 0
-0.864727 4.49282 -0.106867 0 255 0
-0.864079 4.50534 -0.0558851 0 255 0
-0.876059 4.49887 -0.00402508 0 255 0
-0.865138 4.50989 0.0521061 0 255 0
-0.87061 4.51841 0.103735 0 255 0
-0.870316 4.56002 0.153073 0 255 0
-0.853581 4.58291 0.210155 0 255 0
-0.838617 4.83145 0.290564 0 255 0
-0.833758 4.57104 0.335548 0 255 0
-0.960009 5.0171 0.423465 0 255 0
-0.788404 4.60872 0.428162 0 255 0
-0.752693 4.62672 0.482514 0 255 0
-0.727855 4.62773 0.529715 0 255 0
-0.6866 4.67488 0.578916 0 255 0
-0.646545 4.61636 0.611583 0 255 0
-0.604287 4.70745 0.639607 0 255 0
-0.582884 4.70039 0.680873 0 255 0
-0.524535 4.71153 0.736166 0 255 0
-0.488309 4.71618 0.755017 0 255 0
-0.426398 4.75839 0.794695 0 255 0
-0.401624 4.80194 0.817578 0 255 0
-0.331913 4.79974 0.826443 0 255 0
-0.266197 4.80936 0.841491 0 255 0
-0.231063 4.83621 0.847885 0 255 0
-0.176276 4.8244 0.868849 0 255 0
-0.102364 4.89924 0.869974 0 255 0
-0.0700256 4.86724 0.90524 0 255 0
0.0204237 4.87963 0.882313 0 255 0
0.0596447 4.9269 0.886568 0 255 0
0.108644 4.92031 0.853366 0 255 0
0.151149 4.95793 0.856677 0 255 0
0.212404 4.94909 0.855757 0 255 0
0.270747 4.96989 0.84452 0 255 0
0.308018 4.95044 0.814284 0 255 0
0.365271 5.00414 0.767146 0 255 0
0.420977 5.01285 0.755332 0 255 0
0.45297 5.03839 0.701272 0 255 0
0.492012 5.06507 0.685717 0 255 0
0.531612 5.0574 0.650395 0 255 0
0.578379 5.06163 0.60138 0 255 0
0.603387 5.02819 0.582638 0 255 0
0.626291 5.09748 0.526403 0 255 0
0.668089 5.10492 0.484652 0 255 0
0.6971 5.13584 0.438934 0 255 0
0.728349 5.15694 0.3939 0 255 0
0.726108 5.15953 0.349862 0 255 0
0.748072 5.20098 0.294898 0 255 0
0.764574 5.17052 0.250143 0 255 0
0.757 5.2088 0.204016 0 255 0
0.800907 4.49716 0.105415 0 255 0
0.743686 5.24217 0.106743 0 255 0
0.741957 5.18594 0.0326401 0 255 0
0.770441 5.25948 0.000535504 0 255 0
