ply
format ascii 1.0
element vertex 54
property float x
property float y
property float z
property uchar red
property uchar green
property uchar blue
end_header
-nan -nan -nan 0 255 0
-nan -nan -nan 0 255 0
0 0 0 0 255 0
0 0 0 0 255 0
-nan -nan -nan 255 255 255
-nan -nan -nan 255 255 255
-nan -nan -nan 255 255 255
-nan -nan -nan 255 255 255
-nan -nan -nan 255 255 255
-nan -nan -nan 255 255 255
-nan -nan -nan 255 255 255
-nan -nan -nan 255 255 255
-nan -nan -nan 255 255 255
-nan -nan -nan 255 255 255
-nan -nan -nan 255 255 255
-nan -nan -nan 255 255 255
-nan -nan -nan 255 255 255
-nan -nan -nan 255 255 255
-nan -nan -nan 255 255 255
-nan -nan -nan 255 255 255
-nan -nan -nan 255 255 255
-nan -nan -nan 255 255 255
-nan -nan -nan 255 255 255
-nan -nan -nan 255 255 255
-nan -nan -nan 255 255 255
-nan -nan -nan 255 255 255
-nan -nan -nan 255 255 255
-nan -nan -nan 255 255 255
-nan -nan -nan 255 255 255
-nan -nan -nan 255 255 255
-nan -nan -nan 255 255 255
-nan -nan -nan 255 255 255
-nan -nan -nan 255 255 255
-nan -nan -nan 255 255 255
-nan -nan -nan 255 255 255
-nan -nan -nan 255 255 255
-nan -nan -nan 255 255 255
-nan -nan -nan 255 255 255
-nan -nan -nan 255 255 255
-nan -nan -nan 255 255 255
-nan -nan -nan 255 255 255
-nan -nan -nan 255 255 255
-nan -nan -nan 255 255 255
-nan -nan -nan 255 255 255
-nan -nan -nan 255 255 255
-nan -nan -nan 255 255 255
-nan -nan -nan 255 255 255
-nan -nan -nan 255 255 255
-nan -nan -nan 255 255 255
-nan -nan -nan 255 255 255
-nan -nan -nan 255 255 255
-nan -nan -nan 255 255 255
-nan -nan -nan 255 255 255
-nan -nan -nan 255 255 255
