ply
format ascii 1.0
element vertex 54
property float x
property float y
property float z
property uchar red
property uchar green
property uchar blue
end_header
0 0 0 255 255 255
1 0 0 255 255 255
1.20067 0.00318952 -0.109773 255 255 255
-1.44138 0.0445089 0.000499972 255 255 255
0.533054 3.80347 -0.0989033 0 255 0
0.508317 4.04663 -0.14274 0 255 0
0.521692 4.05171 -0.203775 0 255 0
0.51058 4.07467 -0.275826 0 255 0
0.487873 4.08532 -0.339635 0 255 0
0.483413 3.95198 -0.418223 0 255 0
0.427462 4.20706 -0.498825 0 255 0
0.358835 4.15101 -0.571232 0 255 0
0.286149 4.14724 -0.589864 0 255 0
0.195159 4.18684 -0.660321 0 255 0
0.130143 4.18811 -0.707897 0 255 0
0.0425936 4.2447 -0.714036 0 255 0
-0.0558165 4.24359 -0.725951 0 255 0
-0.139754 4.30585 -0.736864 0 255 0
-0.242209 4.30061 -0.738678 0 255 0
-0.32291 4.30576 -0.70162 0 255 0
-0.42931 4.38014 -0.654967 0 255 0
-0.5207 4.3608 -0.628806 0 255 0
-0.596289 4.44574 -0.554016 0 255 0
-0.662968 4.43635 -0.479974 0 255 0
-0.861962 4.75977 -0.422555 0 255 0
-0.8028 4.46163 -0.319912 0 255 0
-0.822431 4.4961 -0.215449 0 255 0
-0.854062 4.53426 -0.105111 0 255 0
-0.898617 4.60369 -0.0199362 0 255 0
-0.870288 4.61686 0.0939286 0 255 0
-0.863794 4.59326 0.218211 0 255 0
-0.828469 4.63887 0.313534 0 255 0
-0.790674 4.67018 0.428897 0 255 0
-0.714718 4.67549 0.515325 0 255 0
-0.66442 4.72016 0.610998 0 255 0
-0.563346 4.74184 0.686536 0 255 0
-0.492517 4.78306 0.766141 0 255 0
-0.394803 4.82424 0.813136 0 255 0
-0.268741 4.82297 0.851525 0 255 0
-0.182861 4.89504 0.893785 0 255 0
-0.0536638 4.90992 0.895602 0 255 0
0.048506 4.94156 0.872016 0 255 0
0.158198 4.95833 0.858923 0 255 0
0.277458 4.98075 0.833745 0 255 0
0.362041 5.00118 0.78204 0 255 0
0.46434 5.02545 0.728735 0 255 0
0.52895 5.06682 0.655321 0 255 0
0.629741 5.07654 0.590331 0 255 0
0.683709 5.15103 0.460698 0 255 0
0.712606 5.18111 0.430203 0 255 0
0.738294 5.20636 0.304343 0 255 0
0.72837 5.11937 0.167498 0 255 0
0.713414 5.10453 0.112571 0 255 0
0.793373 4.62705 0.0024876 0 255 0
